<?xml version="1.0" encoding="UTF-8"?>
<svg id="Capa_1" data-name="Capa 1" xmlns="http://www.w3.org/2000/svg" viewBox="0 0 512 512">
  <defs>
    <style>
      .cls-1 {
        fill: #fff;
      }

      .cls-2 {
        fill: #e52713;
      }

      .cls-3 {
        fill: #1d1d1b;
      }
    </style>
  </defs>
  <g>
    <path class="cls-3" d="M136.34,377.26v-37.93c0-4.93-2.56-10.38-14.98-10.38v-3.23h47.28v3.23c-12.41,0-14.96,5.45-14.96,10.38v85.38c0,4.93,2.55,10.37,14.96,10.37v3.23h-47.28v-3.23c12.42,0,14.98-5.45,14.98-10.37v-40.48h-51.54v40.48c0,4.93,2.55,10.37,14.97,10.37v3.23h-47.29v-3.23c12.42,0,14.97-5.45,14.97-10.37v-85.38c0-4.93-2.55-10.38-14.97-10.38v-3.23h47.29v3.23c-12.42,0-14.97,5.45-14.97,10.38v37.93h51.54"/>
    <path class="cls-3" d="M172.63,404.14h3.91c5.28,15.82,17.18,30.12,35.21,30.12,13.78,0,23.12-11.91,19.22-25.18-6.98-23.81-53.4-24.84-53.4-57.32,0-16.84,13.43-28.41,30.1-28.41,18.03,0,26.19,12.59,30.27,0h3.56l3.74,36.24h-4.24c-3.92-15.82-15.15-29.26-30.96-29.26-10.21,0-17.85,5.61-17.85,16.33,0,9.86,10.71,16.83,18.02,21.25,23.13,13.95,38.78,21.27,38.78,41.67,0,15.31-12.76,31.13-35.87,31.13-17.69,0-29.94-12.4-31.65,0h-3.74l-5.1-36.57"/>
    <path class="cls-3" d="M305.22,376.07c17.17,0,27.21-7.32,27.21-21.09,0-12.94-8.16-19.91-20.07-22.11-15.65-1.03-21.1-1.36-21.1,4.59v38.61h13.95M291.27,423.01c0,5.96,1.54,9.02,13.95,9.02,17.69,0,30.79-5.27,30.79-25.17s-20.25-23.99-36.23-23.99h-8.51v40.14ZM273.93,339.33c0-4.93-2.55-10.38-16.32-10.38v-3.23h45.57c26.2,0,46.61,6.98,46.61,28.75,0,14.28-9.53,21.6-22.62,24.49v.34c14.62,2.71,28.39,11.72,28.39,28.06,0,20.41-17.68,30.95-44.38,30.95h-53.58v-3.23c13.77,0,16.32-5.45,16.32-10.37v-85.38Z"/>
    <path class="cls-3" d="M457.64,360.75h-4.08c-4.93-18.71-17.34-31.47-36.74-31.47-28.06,0-40.13,22.62-40.13,53.23,0,23.82,12.41,49.49,40.31,49.49,16.67,0,28.06-5.44,39.8-17l2.89,3.4c-10.37,12.76-27.89,21.27-44.22,21.27-33.16,0-58.5-21.27-58.5-58.52,0-33.84,23.98-58.85,58.17-58.85,23.3,0,31.81,13.96,37.43.18h3.56l1.52,38.27"/>
  </g>
  <g>
    <rect class="cls-1" x="134.75" y="72.73" width="242.68" height="242.68"/>
    <polyline class="cls-2" points="134.75 72.54 377.43 72.54 256.09 193.88 134.75 72.54"/>
    <polyline class="cls-2" points="134.75 315.22 377.43 315.22 256.09 193.88 134.75 315.22"/>
    <polyline class="cls-2" points="134.75 72.54 134.75 315.22 13.4 193.88 134.75 72.54"/>
    <polyline class="cls-2" points="377.43 72.54 377.43 315.22 498.77 193.88 377.43 72.54"/>
  </g>
</svg>