<?xml version="1.0" encoding="UTF-8"?>
<svg id="Capa_1" xmlns="http://www.w3.org/2000/svg" version="1.1" viewBox="0 0 512 512">
  <!-- Generator: Adobe Illustrator 30.7.0, SVG Export Plug-In . SVG Version: 2.1.4 Build 114)  -->
  <defs>
    <style>
      .st0 {
        fill: #244081;
      }

      .st1 {
        fill: none;
      }
    </style>
  </defs>
  <rect class="st1" x="16.52" y="204.55" width="478.58" height="103.29"/>
  <g>
    <path class="st0" d="M17.32,280.89c.51-2.98,1.38-5.84,2.61-8.62,1.18-2.67,2.72-5.12,4.59-7.3,5.53-6.44,12.38-10.9,20.86-12.35,5.8-.99,11.61-.66,16.96,2.11,6.36,3.29,10.37,8.51,11.53,15.6,1.17,7.1-.25,13.79-4.03,19.94-3.95,6.41-9.37,11.22-16.27,14.28-3.89,1.73-7.98,2.65-12.31,2.68-4.32.03-8.46-.49-12.3-2.54-6.43-3.42-10.36-8.68-11.52-15.91-.02-.13-.09-.24-.13-.37v-7.53ZM70.67,274.54c.1-4.92-1.56-9.2-5.01-12.63-4.58-4.54-10.39-5.83-16.54-4.95-7.21,1.03-13.13,4.64-17.67,10.36-4.03,5.08-6.28,10.74-5.46,17.36.63,5.06,2.92,9.17,7.18,12.03,6.13,4.11,12.72,4.18,19.46,1.75,4.42-1.6,8.17-4.22,11.32-7.71,4.16-4.62,6.61-9.94,6.72-16.2Z"/>
    <path class="st0" d="M155.63,271.37c-5.25-.19-10.43-.69-15.22-3.12-3.37-1.71-6.02-4.15-7.6-7.63-.65-1.42-.61-1.53.86-2,1.89-.62,3.79-1.2,5.68-1.79.6-.19,1.21-.34,1.57.39,1.8,3.6,4.98,5.24,8.71,6.06,4.6,1.01,9.16.98,13.66-.59,1.21-.42,2.26-1.02,3.15-1.96,1.49-1.59,1.32-3.63-.46-4.9-1.9-1.35-4.12-1.72-6.33-2.1-5.01-.84-10.13-1.07-15.06-2.37-3.71-.98-7.17-2.47-9.36-5.98-2.54-4.07-1.38-10.71,2.48-13.57,3.04-2.26,6.51-3.21,10.21-3.7,2.99-.4,5.98-.34,8.95-.18,4.69.25,9.27,1.11,13.24,3.89,2.36,1.65,4.07,3.82,5.09,6.53.25.67.06.95-.56,1.15-2.09.67-4.17,1.38-6.27,2.03-.43.13-.91.44-1.25-.36-1.57-3.72-4.85-5.17-8.49-5.79-3.33-.57-6.73-.57-10.08-.04-2.05.33-4.11.85-5.43,2.65-1.26,1.72-.84,3.29,1.03,4.28,2.37,1.27,5,1.53,7.6,1.98,5.89,1.01,11.96,1.18,17.55,3.63,3.81,1.67,6.6,4.74,6.73,9.67.16,5.84-3.25,9.73-8.1,11.7-3.15,1.28-6.44,1.91-9.86,1.9-.81,0-1.63.16-2.44.24Z"/>
    <path class="st0" d="M361.86,227.87c5.64-.13,10.68.47,15.33,2.86,3,1.55,5.29,3.84,6.67,6.98.46,1.05.33,1.63-.86,1.97-1.95.56-3.86,1.24-5.79,1.87-.52.17-.93.35-1.23-.39-1.5-3.64-4.63-5.22-8.2-5.76-4.36-.65-8.79-.91-13.08.66-1.2.44-2.27,1.04-2.92,2.21-.85,1.53-.41,3.07,1.15,3.93,2.4,1.33,5.08,1.58,7.72,2,5.02.8,10.12,1.2,15.01,2.66,3.16.94,5.95,2.53,7.89,5.35,1.94,2.82,1.75,10.29-1.34,13.35-3.27,3.23-7.24,4.51-11.55,5.31-1.89.35-3.82.41-5.67.39-6.6-.07-13.18-.64-18.68-4.91-2.09-1.62-3.84-3.6-4.77-6.17-.3-.82-.19-1.24.72-1.5,2.08-.58,4.14-1.23,6.19-1.89.64-.2,1.05-.09,1.4.51,2.46,4.35,6.57,5.78,11.21,6.38,3.62.47,7.16.26,10.63-.83,1.53-.48,2.99-1.16,3.97-2.52,1.18-1.65.89-3.3-.76-4.49-1.89-1.36-4.1-1.76-6.32-2.14-5.05-.86-10.21-1.13-15.2-2.37-2.8-.69-5.47-1.8-7.53-3.85-2.34-2.32-3.38-5.15-3-8.56.66-5.92,4.62-8.53,9.75-10.04,3.18-.93,6.45-1.23,9.28-1.05Z"/>
    <path class="st0" d="M122.88,227.03c-.02,7.43-2.52,14.01-7.11,19.79-5.08,6.41-11.51,10.88-19.61,12.66-7.75,1.7-15.08.79-21.46-4.28-4.37-3.47-6.89-8.15-7.72-13.63-1.04-6.83.23-13.31,3.62-19.32,3.37-5.99,8.01-10.76,14.08-14.1,3.6-1.98,7.41-3.42,11.48-3.8,7-.65,13.62.34,19.16,5.25,4.09,3.62,6.43,8.09,7.29,13.43.21,1.34.21,2.66.26,4ZM71.01,238.88c-.08.52.19,1.36.28,2.21.51,4.89,2.73,8.93,6.63,11.83,5.9,4.38,12.44,4.7,19.19,2.22,5.52-2.02,10-5.47,13.34-10.29,3.6-5.19,5.62-10.89,4.62-17.28-1.69-10.78-11.26-16.43-21.17-14.76-7.04,1.18-12.7,4.81-17.1,10.38-3.55,4.49-5.53,9.6-5.79,15.69Z"/>
    <path class="st0" d="M266.17,227.86c3.69-.16,7.62.42,11.38,2.06,3.86,1.68,6.84,4.28,8.71,8.1.38.79.36,1.22-.59,1.52-1.85.58-3.67,1.27-5.5,1.93-.68.25-1.17.23-1.62-.48-2.39-3.79-6.08-5.26-10.35-5.72-4.34-.46-8.45.15-12.16,2.53-3.75,2.41-5.35,6.07-5.59,10.37-.13,2.41-.07,4.82.85,7.13,1.47,3.68,4.15,6.16,7.8,7.45,4.95,1.75,9.93,1.7,14.72-.7,1.79-.9,3.36-2.12,4.48-3.83.32-.49.63-.83,1.36-.56,2.14.8,4.31,1.54,6.48,2.26,1.26.42.44,1.12.17,1.59-2.55,4.48-6.48,7.14-11.38,8.55-3.1.9-6.3,1.22-9.47,1.22-5.4,0-10.67-.93-15.25-4.13-4.76-3.33-7.42-7.96-8.24-13.63-.58-3.99-.54-7.97.69-11.89,1.46-4.65,4.21-8.21,8.51-10.6,4.56-2.54,9.49-3.29,15-3.19Z"/>
    <path class="st0" d="M488.25,262.64c-2,1.62-3.92,2.88-6.17,3.42-5.59,1.33-10.9.97-15.49-2.95-4.6-3.92-5.85-9-5.2-14.77.4-3.51,1.76-6.52,4.31-9.01,2.73-2.67,6.08-3.91,9.79-4.18,4.24-.31,8.28.37,11.78,3.04.21.16.48.5.79.32.36-.21.19-.63.19-.95.01-3.41.05-6.83-.01-10.24-.02-1.18.35-1.63,1.55-1.55,1.38.09,2.78.09,4.16,0,1.22-.08,1.55.4,1.54,1.56-.04,7.61-.02,15.21-.02,22.82,0,4.67-.03,9.33.02,14,.01,1.2-.38,1.61-1.56,1.54-1.34-.08-2.69-.1-4.03,0-1.36.11-1.82-.43-1.64-1.7.05-.34,0-.68,0-1.34ZM488.25,250.83c0-1.51-.02-3.03.01-4.54.01-.61-.17-1.05-.65-1.45-3.81-3.2-8.05-4.4-12.88-2.79-3.41,1.13-5.98,4.53-6.09,7.95-.15,4.76,1.74,7.97,5.54,9.6,4.36,1.87,8.22.72,11.99-1.69,1.63-1.04,2.42-2.27,2.11-4.23-.15-.93-.03-1.9-.03-2.85Z"/>
    <path class="st0" d="M208.52,254.48c0,3.29-.03,6.57.02,9.86.02,1.03-.37,1.37-1.37,1.33-1.52-.06-3.04-.05-4.55,0-.92.03-1.42-.26-1.3-1.25.14-1.13-.24-1.25-1.19-.72-4.02,2.26-8.35,3.33-12.96,2.97-3.45-.27-6.65-1.28-8.8-4.26-2.27-3.15-1.77-8.91,2.08-11.7,3.05-2.22,6.55-3.24,10.18-3.9,3.23-.59,6.48-1,9.77-1.05.79-.01.95-.41.91-1.08-.08-1.29-1.25-2.7-2.77-3.1-3.11-.81-6.22-.94-9.32.14-1.24.44-2.27,1.12-2.78,2.34-.27.65-.68.82-1.3.82-1.82,0-3.64-.01-5.47,0-.8,0-1.04-.24-.84-1.1.87-3.63,3.22-5.95,6.56-7.3,3.9-1.57,7.99-1.6,12.12-1.19,2.3.23,4.51.63,6.57,1.76,3.06,1.67,4.3,4.39,4.4,7.68.09,3.24.02,6.49.02,9.73ZM201.32,254.27c0-.6-.05-1.21.01-1.81.1-1.01-.28-1.39-1.32-1.35-1.56.06-3.08.31-4.61.55-2.94.46-5.87.98-8.52,2.45-1.4.77-2.16,2.47-1.8,4.03.42,1.78,2.02,2.89,4.36,2.92,3.36.05,6.39-1.08,9.41-2.42,2.07-.92,3.01-2.15,2.48-4.37Z"/>
    <path class="st0" d="M417.6,254.05c0,3.37-.03,6.74.02,10.11.02,1.09-.27,1.59-1.46,1.51-1.43-.09-2.86-.08-4.29,0-1.13.06-1.63-.31-1.48-1.46.13-.97-.28-1.01-1.02-.58-4.07,2.38-8.47,3.43-13.17,3.04-2.7-.22-5.25-1.04-7.42-2.77-2.39-1.91-3.27-6.46-1.88-9.66,1.22-2.8,3.54-4.42,6.22-5.53,4.1-1.69,8.44-2.41,12.85-2.71,1.2-.08,2.4-.32,3.61-.26.54.03.74-.27.79-.8.15-1.38-.49-2.59-2.03-3.1-3.59-1.18-7.2-1.34-10.74.26-.77.35-1.53.88-1.78,1.63-.36,1.1-1.05,1.19-1.99,1.17-1.56-.04-3.12-.04-4.68,0-1.14.03-1.32-.5-1.03-1.46,1.13-3.73,3.66-6.15,7.31-7.24,5.56-1.66,11.17-1.65,16.68.29,3.6,1.27,5.46,4.14,5.46,7.96,0,3.2,0,6.4,0,9.6ZM410.4,254.28c0-.52,0-1.04,0-1.55,0-1.61-.04-1.72-1.69-1.57-2.05.19-4.11.49-6.14.86-2.12.39-4.24.81-6.16,1.87-2.25,1.25-2.93,3.83-1.43,5.68.9,1.12,2.21,1.47,3.58,1.49,3.17.05,6.09-.89,8.99-2.13,2.16-.93,3.57-2.08,2.86-4.66Z"/>
    <path class="st0" d="M286.2,250.69c-.27-3.29.69-6.59,2.78-9.54,2.34-3.32,5.72-5.06,9.64-5.71,3.44-.57,6.87-.46,10.27.44,5.27,1.4,9.57,6.23,10.31,11.62.46,3.37.41,6.69-.75,9.93-1.69,4.72-5.25,7.43-9.92,8.63-4.24,1.09-8.55,1.01-12.78-.39-5.8-1.93-9.55-7.1-9.56-13.21,0-.48,0-.95,0-1.77ZM312.01,250.15c.1-1.32-.22-3.17-1.28-4.83-1.61-2.52-4.02-3.62-6.94-3.91-2.61-.26-5.02.24-7.05,1.86-3.04,2.42-3.55,5.72-3.14,9.41.79,6.94,8.04,9.45,13.54,6.91,3.74-1.73,4.88-4.98,4.86-9.44Z"/>
    <path class="st0" d="M217.63,238.98c.81-.16,1.15-.7,1.64-1.04,4.82-3.39,10.06-3.74,15.4-1.64,3.58,1.41,5.2,4.57,5.3,8.22.18,6.61.03,13.23.07,19.84,0,1.06-.43,1.34-1.39,1.31-1.47-.05-2.95-.06-4.42,0-1.07.05-1.43-.34-1.42-1.41.04-5.49.02-10.98.02-16.47,0-1.45-.35-2.84-1.06-4.08-1.21-2.12-3.35-2.51-5.5-2.4-2.57.13-5.03.78-7.01,2.62-.83.77-1.38,1.57-1.37,2.78.04,5.75-.01,11.5.04,17.25.01,1.26-.28,1.82-1.66,1.72-1.55-.11-3.12-.05-4.68-.02-.83.02-1.16-.29-1.16-1.13.02-9.08.02-18.16,0-27.24,0-.84.32-1.16,1.15-1.14,1.47.03,2.96.09,4.42-.02,1.36-.1,1.81.44,1.64,1.71-.05.34,0,.68,0,1.14Z"/>
    <path class="st0" d="M452.33,262.56c-1.87,1.98-3.89,3.15-6.19,3.64-4.09.88-8.18,1.04-11.91-1.3-3.07-1.92-4.17-5.03-4.25-8.41-.15-6.31-.02-12.63-.06-18.94,0-1.08.37-1.45,1.43-1.4,1.34.07,2.69.01,4.03.02,1.74,0,1.75,0,1.75,1.7,0,4.8.02,9.6-.01,14.4,0,1.18.16,2.33.37,3.46.6,3.34,2.55,4.92,5.99,4.81,3.01-.09,5.79-.85,7.91-3.25.62-.69.96-1.33.95-2.28-.04-5.75.01-11.5-.04-17.26-.01-1.25.37-1.7,1.63-1.61,1.34.09,2.69.1,4.03,0,1.29-.09,1.6.43,1.59,1.64-.04,8.22-.02,16.44-.02,24.65,0,.74-.02,1.47,0,2.21.02.7-.28,1.03-1,1.02-1.74-.02-3.47-.02-5.21,0-.72,0-1.02-.32-1-1.02.02-.59,0-1.17,0-2.08Z"/>
    <path class="st0" d="M61.36,232.47c.27,4.7-1.31,8.71-4.66,12.01-2.84,2.8-6.39,4.07-10.28,4.29-10.99.63-21.04-7.55-23.81-17.71-1.49-5.45-1.2-10.88,2.33-15.68,2.77-3.78,6.62-5.78,11.22-6.17,7.28-.61,13.38,2.11,18.45,7.16,3.64,3.62,5.89,8.04,6.72,13.12.16.97.02,1.98.02,2.98ZM58.07,233.53c0-.78.11-1.57-.02-2.33-1.46-8.94-10.06-16.36-18.82-15.91-8,.41-12.71,7.02-11.86,14.15.67,5.61,3.69,9.96,8.19,13.28,3.7,2.73,7.95,3.96,12.48,3.19,6.24-1.05,10.12-6.01,10.02-12.38Z"/>
    <path class="st0" d="M117.09,286.21c.2,4.65-1.39,8.61-4.77,11.83-2.67,2.54-5.96,3.84-9.56,4.17-5.78.53-11.08-1.01-15.75-4.42-5.01-3.67-8.54-8.44-9.77-14.61-1.15-5.79-.03-11.09,4.27-15.38,2.82-2.82,6.35-4.14,10.36-4.42,5.49-.39,10.42,1.08,14.88,4.16,5.62,3.89,9.14,9.19,10.32,15.95.15.88.02,1.81.02,2.72ZM79.64,279.07c-.15,2.37.57,4.59,1.56,6.78,2.89,6.38,10.57,11.74,18.2,11.07,7.52-.67,12.46-6.84,11.49-14.1-1.24-9.21-10.16-16.37-19-16.17-6.72.15-12.66,5.74-12.25,12.42Z"/>
    <path class="st0" d="M328.03,239.42c1.77-2.02,3.92-3.2,6.38-3.9,1.61-.46,3.25-.41,4.89-.39.64,0,.97.25.96.92-.01,1.94,0,3.89,0,5.83,0,.86-.43.93-1.18.83-1.93-.24-3.88-.34-5.8.1-3.45.8-5.23,3.04-5.24,6.55-.01,4.88-.05,9.77.03,14.65.02,1.33-.4,1.76-1.7,1.67-1.42-.1-2.86-.08-4.29,0-1.1.05-1.53-.27-1.52-1.44.04-8.9.03-17.81,0-26.71,0-.97.26-1.42,1.32-1.38,1.65.07,3.3.05,4.94,0,.89-.02,1.28.3,1.22,1.2-.05.68,0,1.38,0,2.06Z"/>
    <path class="st0" d="M427.5,247.28c0,6.13-.02,12.27.02,18.4,0,1.16-.32,1.64-1.54,1.56-1.42-.09-2.86-.07-4.29,0-1.08.05-1.42-.35-1.42-1.42.04-6.78.02-13.57.02-20.35,0-5.53.03-11.06-.02-16.59-.01-1.16.32-1.64,1.54-1.56,1.42.09,2.86.07,4.29,0,1.08-.05,1.42.35,1.42,1.42-.04,6.18-.02,12.36-.02,18.53Z"/>
    <path class="st0" d="M69.25,274.14c.09,6.29-2.22,11.18-6.03,15.52-3.93,4.48-8.81,7.3-14.66,8.31-6.73,1.15-12.77-.28-17.36-5.64-2.3-2.68-3.41-5.89-3.58-9.49-.33-7.18,2.48-13.03,7.54-17.86,3.95-3.78,8.68-6.14,14.22-6.81,4.58-.55,8.87.08,12.79,2.57,4.16,2.65,7.45,7.7,7.09,13.4ZM53.3,261.51c-3.12-.13-5.99.72-8.66,2.25-6.81,3.9-10.9,9.49-10.53,17.6.17,3.78,2.08,6.84,5.16,9.01,3.71,2.62,7.88,3.02,12.22,1.93,4.76-1.19,8.61-3.8,11.47-7.71,2.8-3.84,4.31-8.1,3.38-12.96-1.22-6.39-7.13-10.43-13.02-10.12Z"/>
    <path class="st0" d="M72.36,239.59c.08-6.85,2.09-11.71,5.59-16.04,3.19-3.94,7.17-6.79,11.99-8.24,6.28-1.89,12.36-1.62,17.75,2.69,3.04,2.43,4.9,5.64,5.47,9.4,1.39,9.18-2.12,16.5-9.1,22.34-4.44,3.71-9.59,5.66-15.38,5.52-6.86-.18-11.96-3.34-14.91-9.6-1.07-2.27-1.51-4.75-1.42-6.07ZM88.75,252.46c.56,0,1.14.07,1.69-.01,4.69-.71,8.68-2.73,11.92-6.23,3.98-4.3,6.11-9.2,5.23-15.17-.4-2.71-1.61-5.07-3.55-6.89-3.59-3.39-8.01-4.48-12.74-3.22-8.43,2.26-13.73,7.67-15.34,16.34-1.5,8.08,4.56,15.23,12.78,15.18Z"/>
    <path class="st0" d="M57.5,233.32c0,6.53-4.09,11.15-10.41,11.85-4.94.55-9.13-1.14-12.76-4.41-3.24-2.91-5.24-6.47-5.81-10.8-.82-6.2,2.75-12.53,9.72-13.57,9.18-1.37,17.97,6.52,19.02,14.51.11.85.32,1.69.24,2.4ZM44.6,243.17c6.51,0,10.48-3.91,10.36-9.16-.1-4.28-2.19-7.65-5.48-10.25-2.83-2.24-6.03-3.47-9.74-2.72-5.05,1.02-7.83,5.7-7.04,10.4.38,2.29,1.22,4.37,2.67,6.21,2.68,3.41,6.12,5.32,9.24,5.52Z"/>
    <path class="st0" d="M109.85,284.36c.3,6.06-4.45,10.99-10.53,11.44-6.91.51-12.13-2.36-16.04-7.8-3.11-4.33-3.83-9.11-1.75-14.07,1.56-3.71,4.63-5.72,8.55-6.34,5.99-.94,10.98,1.18,15.09,5.4,2.97,3.06,4.8,6.71,4.69,11.37ZM95.96,291.96c.88.09,1.82-.22,2.79-.47,4.14-1.07,7.1-5.51,6.46-9.68-1.06-6.92-7.96-12.63-14.97-11.76-4.08.51-7.53,4.15-7.75,8.26-.38,7.06,6.39,13.54,13.48,13.65Z"/>
  </g>
  <g>
    <path class="st0" d="M243.55,285.49c0-4.76,3.58-7.81,8.19-7.81,2.37,0,4.56.78,5.82,1.97l-2.3,2.58c-.7-.8-1.92-1.39-3.39-1.39-2.56,0-4.43,1.97-4.43,4.64s1.64,4.68,4.6,4.68c.85,0,1.64-.13,2.28-.4v-2.71h-2.88v-2.9h6.22v7.87c-1.47.76-3.5,1.28-5.82,1.28-4.82,0-8.29-3.15-8.29-7.83Z"/>
    <path class="st0" d="M260.3,292.94v-9.37h3v1.35h.04c.47-.94,1.41-1.61,2.56-1.61.25,0,.51.02.66.07l-.13,2.69c-.29-.07-.55-.09-.8-.09-1.67,0-2.22,1.35-2.22,2.11v4.84h-3.11Z"/>
    <path class="st0" d="M267.73,289.39v-5.82h3.13v5.11c0,1.05.27,1.98,1.41,1.98s1.67-.94,1.67-2v-5.09h3.11v9.37h-3v-1.29h-.04c-.44.82-1.52,1.55-2.85,1.55-2.54,0-3.44-1.94-3.44-3.81Z"/>
    <path class="st0" d="M279.48,297.43v-13.86h2.96v1.14h.06c.57-.75,1.63-1.4,3.02-1.4,2.75,0,4.48,2.28,4.48,4.9s-1.65,4.99-4.5,4.99c-1.16,0-2.28-.49-2.87-1.29h-.04v5.52h-3.11ZM286.98,288.21c0-1.22-.74-2.39-2.22-2.39-1.41,0-2.28,1.23-2.28,2.41s.87,2.43,2.28,2.43c1.48,0,2.22-1.22,2.22-2.45Z"/>
    <path class="st0" d="M291.49,288.25c0-3.05,2.39-4.92,5.24-4.92s5.26,1.87,5.26,4.92-2.39,4.99-5.26,4.99-5.24-1.94-5.24-4.99ZM298.99,288.25c0-1.2-.8-2.37-2.26-2.37s-2.22,1.18-2.22,2.37.78,2.41,2.24,2.41,2.24-1.22,2.24-2.41Z"/>
    <path class="st0" d="M308.24,288.25c0-2.6,1.71-4.88,4.46-4.88,1.39,0,2.35.64,2.89,1.25h.04v-5.82h3.11v14.14h-2.87v-1.22h-.04c-.61.93-1.84,1.48-3.09,1.48-2.85,0-4.5-2.36-4.5-4.96ZM315.76,288.27c0-1.18-.87-2.39-2.28-2.39-1.48,0-2.24,1.18-2.24,2.37s.76,2.41,2.24,2.41c1.4,0,2.28-1.18,2.28-2.39Z"/>
    <path class="st0" d="M320.74,288.32c0-3.05,2.24-4.99,5.11-4.99s4.75,1.89,4.75,5.07c0,.24,0,.5-.02.73h-6.85c.09,1.03,1.14,1.76,2.26,1.76.99,0,1.67-.41,2.09-.97l2.16,1.35c-.89,1.27-2.37,1.98-4.29,1.98-2.85,0-5.2-1.78-5.2-4.92ZM327.72,287.22c0-.97-.63-1.78-1.86-1.78s-2.07.82-2.14,1.78h4.01Z"/>
    <path class="st0" d="M337.45,292.94v-13.24h4.61l3.06,8.49h.08l2.92-8.49h4.69v13.24h-3.17l.08-9.37h-.06l-3.49,9.37h-2.28l-3.4-9.37h-.06l.08,9.37h-3.06Z"/>
    <path class="st0" d="M354.94,288.32c0-3.05,2.24-4.99,5.11-4.99s4.75,1.89,4.75,5.07c0,.24,0,.5-.02.73h-6.85c.09,1.03,1.14,1.76,2.26,1.76.99,0,1.67-.41,2.09-.97l2.16,1.35c-.89,1.27-2.37,1.98-4.29,1.98-2.85,0-5.2-1.78-5.2-4.92ZM361.93,287.22c0-.97-.63-1.78-1.86-1.78s-2.07.82-2.14,1.78h4.01Z"/>
    <path class="st0" d="M366.26,288.25c0-2.6,1.71-4.88,4.46-4.88,1.39,0,2.35.64,2.89,1.25h.04v-5.82h3.11v14.14h-2.87v-1.22h-.04c-.61.93-1.84,1.48-3.09,1.48-2.85,0-4.5-2.36-4.5-4.96ZM373.78,288.27c0-1.18-.87-2.39-2.28-2.39-1.48,0-2.24,1.18-2.24,2.37s.76,2.41,2.24,2.41c1.4,0,2.28-1.18,2.28-2.39Z"/>
    <path class="st0" d="M379.04,280.66c0-.9.78-1.68,1.79-1.68s1.78.75,1.78,1.68-.8,1.68-1.78,1.68-1.79-.77-1.79-1.68ZM379.27,292.94v-9.37h3.11v9.37h-3.11Z"/>
    <path class="st0" d="M384.38,288.29c0-3.03,2.34-4.96,5.28-4.96,1.35,0,2.77.5,3.51,1.25l-1.8,2.06c-.34-.45-1.03-.75-1.65-.75-1.31,0-2.18,1.1-2.18,2.39s.85,2.37,2.22,2.37c.63,0,1.31-.24,1.69-.69l1.73,2.08c-.78.75-2.11,1.2-3.49,1.2-2.98,0-5.3-1.87-5.3-4.96Z"/>
    <path class="st0" d="M394.21,280.66c0-.9.78-1.68,1.78-1.68s1.79.75,1.79,1.68-.8,1.68-1.79,1.68-1.78-.77-1.78-1.68ZM394.44,292.94v-9.37h3.11v9.37h-3.11Z"/>
    <path class="st0" d="M400.03,292.94v-9.37h3.02v1.29h.04c.44-.82,1.52-1.55,2.83-1.55,2.54,0,3.46,1.94,3.46,3.81v5.82h-3.13v-5.14c0-1.03-.28-1.96-1.41-1.96s-1.67.93-1.67,2v5.11h-3.13Z"/>
    <path class="st0" d="M411.14,290.25c0-2.67,3.28-3.14,6.02-3.14h.06v-.15c0-.92-.74-1.35-1.71-1.35-.89,0-1.77.43-2.33.95l-1.58-1.66c1.1-1.03,2.68-1.57,4.21-1.57,3.17,0,4.35,1.53,4.35,4.92v4.69h-2.85v-.99h-.06c-.47.77-1.56,1.22-2.68,1.22-1.5,0-3.44-.73-3.44-2.92ZM417.31,289.2v-.32h-.4c-1.37,0-2.91.17-2.91,1.27,0,.71.72.95,1.35.95,1.25,0,1.96-.75,1.96-1.91Z"/>
    <path class="st0" d="M427.39,292.94v-13.24h4.94c2.94,0,5.26,1.05,5.26,4.08s-2.53,4.17-5.34,4.17h-1.61v4.99h-3.25ZM430.64,285.41h1.37c1.22,0,2.33-.36,2.33-1.61s-1.12-1.51-2.28-1.51h-1.42v3.12Z"/>
    <path class="st0" d="M438.54,292.94v-9.37h3v1.35h.04c.47-.94,1.41-1.61,2.56-1.61.25,0,.51.02.66.07l-.13,2.69c-.29-.07-.55-.09-.8-.09-1.67,0-2.22,1.35-2.22,2.11v4.84h-3.11Z"/>
    <path class="st0" d="M445.87,280.66c0-.9.78-1.68,1.78-1.68s1.79.75,1.79,1.68-.8,1.68-1.79,1.68-1.78-.77-1.78-1.68ZM446.1,292.94v-9.37h3.11v9.37h-3.11Z"/>
    <path class="st0" d="M454.17,292.94l-3.72-9.37h3.44l1.99,6.1h.06l1.99-6.1h3.32l-3.72,9.37h-3.36Z"/>
    <path class="st0" d="M461.86,290.25c0-2.67,3.28-3.14,6.02-3.14h.06v-.15c0-.92-.74-1.35-1.71-1.35-.89,0-1.77.43-2.34.95l-1.58-1.66c1.1-1.03,2.68-1.57,4.21-1.57,3.17,0,4.35,1.53,4.35,4.92v4.69h-2.85v-.99h-.06c-.47.77-1.56,1.22-2.68,1.22-1.5,0-3.44-.73-3.44-2.92ZM468.04,289.2v-.32h-.4c-1.37,0-2.91.17-2.91,1.27,0,.71.72.95,1.35.95,1.25,0,1.96-.75,1.96-1.91Z"/>
    <path class="st0" d="M472.73,288.25c0-2.6,1.71-4.88,4.46-4.88,1.39,0,2.35.64,2.89,1.25h.04v-5.82h3.11v14.14h-2.87v-1.22h-.04c-.61.93-1.84,1.48-3.1,1.48-2.85,0-4.5-2.36-4.5-4.96ZM480.25,288.27c0-1.18-.87-2.39-2.28-2.39-1.48,0-2.24,1.18-2.24,2.37s.76,2.41,2.24,2.41c1.4,0,2.28-1.18,2.28-2.39Z"/>
    <path class="st0" d="M485.11,290.25c0-2.67,3.28-3.14,6.02-3.14h.06v-.15c0-.92-.74-1.35-1.71-1.35-.89,0-1.77.43-2.33.95l-1.58-1.66c1.1-1.03,2.68-1.57,4.21-1.57,3.17,0,4.35,1.53,4.35,4.92v4.69h-2.85v-.99h-.06c-.47.77-1.56,1.22-2.68,1.22-1.5,0-3.44-.73-3.44-2.92ZM491.28,289.2v-.32h-.4c-1.37,0-2.91.17-2.91,1.27,0,.71.72.95,1.35.95,1.25,0,1.96-.75,1.96-1.91Z"/>
  </g>
</svg>